<svg xmlns="http://www.w3.org/2000/svg" width="1674" height="460" viewBox="0 0 1674 460" fill="none"><path d="M373.52 459.48C367.2 459.48 361.32 458.4 355.88 456.24C350.52 454 345.8 450.88 341.72 446.88C337.72 442.88 334.6 438.24 332.36 432.96C330.12 427.6 329 421.84 329 415.68C329 409.52 330.12 403.8 332.36 398.52C334.6 393.16 337.72 388.52 341.72 384.6C345.72 380.68 350.4 377.64 355.76 375.48C361.2 373.24 367.08 372.12 373.4 372.12C380.12 372.12 386.08 373.2 391.28 375.36C396.56 377.52 401.16 380.48 405.08 384.24L392.48 396.96C390.24 394.56 387.52 392.68 384.32 391.32C381.2 389.96 377.56 389.28 373.4 389.28C369.72 389.28 366.32 389.92 363.2 391.2C360.16 392.4 357.52 394.16 355.28 396.48C353.12 398.8 351.4 401.6 350.12 404.88C348.92 408.16 348.32 411.76 348.32 415.68C348.32 419.68 348.92 423.32 350.12 426.6C351.4 429.88 353.12 432.68 355.28 435C357.52 437.32 360.16 439.12 363.2 440.4C366.32 441.68 369.72 442.32 373.4 442.32C377.72 442.32 381.48 441.64 384.68 440.28C387.88 438.92 390.64 437.04 392.96 434.64L405.68 447.36C401.6 451.12 396.92 454.08 391.64 456.24C386.44 458.4 380.4 459.48 373.52 459.48ZM490.454 423.24V409.32H508.334C512.094 409.32 514.974 408.36 516.974 406.44C519.054 404.52 520.094 401.92 520.094 398.64C520.094 395.6 519.094 393.08 517.094 391.08C515.094 389.08 512.214 388.08 508.454 388.08H490.454V373.44H510.614C516.214 373.44 521.134 374.52 525.374 376.68C529.614 378.76 532.934 381.68 535.334 385.44C537.734 389.2 538.934 393.52 538.934 398.4C538.934 403.36 537.734 407.72 535.334 411.48C532.934 415.16 529.574 418.04 525.254 420.12C520.934 422.2 515.854 423.24 510.014 423.24H490.454ZM476.054 458.16V373.44H494.894V458.16H476.054ZM522.134 458.16L495.734 421.68L513.014 417L544.454 458.16H522.134ZM612.695 458.16V373.44H631.535V458.16H612.695ZM627.095 458.16V441.84H673.535V458.16H627.095ZM627.095 422.76V407.04H669.335V422.76H627.095ZM627.095 389.64V373.44H672.935V389.64H627.095ZM740.163 458.16L773.763 373.44H790.803L824.043 458.16H804.123L778.683 387.84H785.523L759.723 458.16H740.163ZM759.243 442.8V427.44H805.443V442.8H759.243ZM904.275 458.16V374.64H923.115V458.16H904.275ZM877.755 389.88V373.44H949.635V389.88H877.755ZM1020.16 458.16V373.44H1039V458.16H1020.16ZM1155.75 459.6C1149.35 459.6 1143.43 458.48 1137.99 456.24C1132.63 454 1127.91 450.88 1123.83 446.88C1119.75 442.88 1116.59 438.24 1114.35 432.96C1112.11 427.6 1110.99 421.84 1110.99 415.68C1110.99 409.44 1112.11 403.68 1114.35 398.4C1116.59 393.12 1119.71 388.52 1123.71 384.6C1127.71 380.6 1132.39 377.52 1137.75 375.36C1143.19 373.12 1149.11 372 1155.51 372C1161.83 372 1167.67 373.12 1173.03 375.36C1178.47 377.52 1183.19 380.6 1187.19 384.6C1191.27 388.52 1194.43 393.16 1196.67 398.52C1198.91 403.8 1200.03 409.56 1200.03 415.8C1200.03 421.96 1198.91 427.72 1196.67 433.08C1194.43 438.36 1191.31 443 1187.31 447C1183.31 450.92 1178.59 454 1173.15 456.24C1167.79 458.48 1161.99 459.6 1155.75 459.6ZM1155.51 442.44C1160.55 442.44 1164.95 441.32 1168.71 439.08C1172.55 436.84 1175.51 433.72 1177.59 429.72C1179.67 425.64 1180.71 420.96 1180.71 415.68C1180.71 411.68 1180.11 408.08 1178.91 404.88C1177.71 401.6 1175.99 398.8 1173.75 396.48C1171.51 394.08 1168.83 392.28 1165.71 391.08C1162.67 389.8 1159.27 389.16 1155.51 389.16C1150.47 389.16 1146.03 390.28 1142.19 392.52C1138.43 394.68 1135.51 397.76 1133.43 401.76C1131.35 405.68 1130.31 410.32 1130.31 415.68C1130.31 419.68 1130.91 423.32 1132.11 426.6C1133.31 429.88 1134.99 432.72 1137.15 435.12C1139.39 437.44 1142.07 439.24 1145.19 440.52C1148.31 441.8 1151.75 442.44 1155.51 442.44ZM1271.99 458.16V373.44H1285.19L1290.83 390.36V458.16H1271.99ZM1330.43 458.16L1280.51 394.2L1285.19 373.44L1335.11 437.4L1330.43 458.16ZM1330.43 458.16L1325.39 441.24V373.44H1344.23V458.16H1330.43Z" fill="#FEC700"></path><g clip-path="url(#clip0_27_100)"><path d="M53.7218 72.8021L53.6528 251.529L53.7001 293.629C53.6971 296.678 53.8694 308.908 53.32 311.146C53.0923 311.417 52.7715 311.915 52.3878 311.942C30.5555 313.537 9.31484 297.393 2.26373 277.095C-0.563647 268.955 0.0330333 257.561 0.0736954 249.345L0.0550174 228.486L0.0411652 151.86L0.0239947 96.7517C0.0267055 86.3966 -0.119378 76.0099 0.393868 65.673C1.70409 39.2908 20.8192 13.7705 45.4924 4.61371C60.8684 -1.09251 78.6437 -1.91014 93.8465 4.99071C96.2983 5.93019 101.696 8.53387 103.423 10.3784C108.879 13.1362 111.925 17.1035 115.991 20.2971C118.028 22.0056 120.916 26.0407 122.821 28.2641C124.48 29.0669 129.371 35.8664 130.81 37.533L224.365 147.166L308.411 245.229C323.049 262.19 338.344 278.739 352.78 295.927C355.205 298.847 357.651 301.745 360.121 304.625C361.738 306.489 363.705 308.359 364.994 310.416C364.831 310.841 364.353 311.637 363.841 311.677C352.052 312.621 339.163 311.387 327.425 311.99C307.582 313.013 288.447 304.511 274.387 290.691C267.459 283.881 259.818 272.71 253.023 265.303C250.541 262.598 244.698 256.554 243.065 253.637C242.023 253.019 238.72 249.56 238.351 248.263C237.277 247.651 233.109 241.942 232.003 240.711C226.6 234.699 221.377 228.453 216.025 222.394C211.637 217.427 206.951 211.284 202.419 206.573C200.976 205.566 199.15 202.126 197.348 200.686C196.355 199.262 192.769 195.439 191.335 193.712C184.259 185.291 177.076 176.96 169.789 168.721C164.762 163.015 116.865 107.747 116.556 106.869C114.525 104.982 111.864 101.317 109.899 98.9989C109.231 98.1839 108.531 97.9161 107.875 97.1124C102.507 90.5363 97.042 83.9253 91.4113 77.587C86.5593 72.0882 82.3853 65.622 76.5236 61.152C75.573 60.1471 73.2197 60.1148 72.0601 59.8992C63.8861 58.3795 55.8109 64.0121 54.192 72.0804C54.167 72.1338 54.142 72.1875 54.117 72.2409L53.7218 72.8021Z" fill="#FEC700"></path><path d="M196.994 200.985C198.127 201.057 198.999 201.136 200.144 201.045C199.826 199.324 199.508 200.219 199.333 197.378L199.583 197.073C201.161 197.545 204.165 198.462 204.149 200.258C204.137 201.474 205.551 202.485 206.288 203.207C206.594 203.507 208.947 205.38 208.948 205.387C209.128 207.068 208.307 206.887 210.677 207.926C211.212 208.795 211.064 209.346 210.279 210.067C207.408 210.302 205.047 203.619 202.619 203.519C201.918 204.48 202.16 205.463 202.179 206.789C200.703 205.796 198.836 202.404 196.994 200.985Z" fill="#FEC700"></path><path d="M109.994 98.6582C111.707 98.7214 111.936 98.8159 113.523 99.5402C114.509 98.1848 112.937 97.1944 115.108 96.0731C118.418 96.365 120.198 101.165 118.069 102.962L117.118 102.714C116.072 103.91 116.627 105.529 116.566 107.073C114.561 105.056 111.934 101.136 109.994 98.6582Z" fill="#FEC700"></path><path d="M237.994 247.705C239.48 247.786 239.772 247.873 241.188 248.316C241.779 246.861 239.502 245.133 239.558 243.336L240.022 243.073C241.184 243.578 243.512 246.165 243.964 247.33C244.417 248.488 243.623 248.208 244.994 249.952C244.572 250.033 242.894 249.585 242.257 249.479C242.627 250.871 242.919 251.639 242.749 253.073C241.698 252.456 238.366 249 237.994 247.705Z" fill="#FEC700"></path><path d="M281.994 292.139C282.551 292.05 283.008 292.074 283.571 292.083C285.618 293.508 292.44 297.286 292.994 298.979C289.088 299.752 283.171 295.628 281.994 292.139Z" fill="#FEC700"></path><path d="M156.666 73.0731C159.373 73.1445 162.241 77.5334 162.981 80.0437C163.092 80.4218 162.492 80.8064 162.207 81.0731C162.079 81.075 161.375 80.8602 161.2 80.8112C160.045 79.6262 156.182 75.8444 155.994 74.3955C156.323 73.9892 156.352 73.9376 156.528 73.4599L156.666 73.0731Z" fill="#FEC700"></path><path d="M79.9941 58.0731C81.065 58.0751 81.5298 58.159 82.2769 58.9619C83.7183 60.5106 87.2247 62.7985 86.9822 65.0184C84.1104 65.5438 82.597 62.1623 80.9698 60.2369C80.4467 59.6179 80.0836 58.8896 79.9941 58.0731Z" fill="#FEC700"></path><path d="M223.022 154.073C224.315 154.559 226.342 156.652 226.932 157.982C227.113 158.391 226.859 158.655 226.673 159.06C225.723 159.092 226.051 159.112 225.114 158.523C224.684 157.898 224.604 157.841 224.02 157.343C222.717 157.376 223.584 158.08 221.846 158.643L221.247 158.324C220.918 157.433 220.909 157.802 221.225 156.97C221.933 156.69 221.934 156.73 222.413 156.164C222.55 155.165 222.557 154.957 223.022 154.073Z" fill="#FEC700"></path><path d="M158.994 149.096C160.985 148.813 162.22 151.193 163.682 152.267C164.652 152.979 164.783 153.99 164.994 155.062C161.479 155.281 159.002 152.262 158.994 149.096Z" fill="#FEC700"></path><path d="M124.099 37.0832C127.677 36.9029 129.528 39.1589 128.859 42.0731C126.596 41.6464 123.372 39.3291 124.099 37.0832Z" fill="#FEC700"></path><path d="M298.994 241.073L299.86 241.237C301.324 242.631 304.808 246.043 304.994 248.073C304.473 248.05 304.087 248.158 303.721 247.842C301.875 246.245 300.679 244.248 299.117 242.401C299.068 241.867 299.027 241.424 298.994 241.073Z" fill="#FEC700"></path><path d="M19.7361 29.0731L19.955 29.2648C20.4485 31.1299 16.1405 35.648 14.7188 37.0731C11.9302 34.5907 17.9832 31.0442 19.4939 29.3477L19.7361 29.0731Z" fill="#FEC700"></path><path d="M165.096 85.0731C169.008 85.2184 170.656 87.3755 169.752 90.0731C167.939 89.4668 167.238 88.4449 165.895 87.3635C164.756 86.4464 164.973 86.1195 165.096 85.0731Z" fill="#FEC700"></path><path d="M140.238 127.073C142.132 127.842 144.615 129.953 143.853 132.072C140.548 132.138 139.451 129.853 140.238 127.073Z" fill="#FEC700"></path><path d="M817.939 200.387C817.62 197.039 815.197 188.582 814.402 184.072C811.29 167.255 811.194 150.018 814.116 133.167C821.172 93.638 843.547 58.4923 876.379 35.3691C885.977 28.5993 897.902 22.9453 908.918 18.7808C968.646 -3.79462 1037.98 18.9866 1075.14 70.2341C1077.03 72.846 1078.7 75.6933 1080.57 78.3591C1081.44 79.6159 1083.95 83.3278 1084.48 84.6451C1087.34 90.3478 1090.41 95.9192 1092.88 101.85C1105.78 132.919 1107.79 170.031 1097.12 202.209C1084.37 240.707 1056.72 272.49 1020.35 290.454C1018.84 291.206 1013.71 293.71 1012.3 294.08C1010.04 296.445 986.639 302.377 982.287 302.988C979.876 303.328 970.473 304.619 967.683 304.794C940.046 306.53 911.648 300.141 887.536 286.484C879.151 281.434 871.602 275.268 863.837 269.399C858.557 265.406 854.681 260.214 849.991 256.245C848.601 254.632 844.39 249.825 843.812 248.188L842.975 247.798C840.98 245.031 824.795 222.768 828.26 220.648C838.03 214.667 848.212 208.632 858.136 202.831C860.225 201.609 864.812 197.385 866.985 197.525C868.604 198.612 870.657 203.206 871.966 205.4C872.884 206.8 876.105 212.17 876.168 213.566C877.131 214.332 878.717 216.65 879.521 217.733C903.883 250.608 945.783 263.151 984.701 252.227C987.62 251.408 998.546 247.032 1000.1 247.139L1000.32 247.153C1001.13 246.013 1003.71 244.985 1005.05 244.241C1057.36 215.254 1072.22 148.66 1037.56 99.8526C1022.2 78.6306 999.061 64.3545 973.203 60.1463C915.411 50.4154 861.609 95.9906 859.59 154.174C859.472 157.144 859.511 160.118 859.701 163.085C859.969 166.705 861.086 172.836 860.73 176.124C860.61 177.254 848.095 184.398 846.358 185.529C837.497 191.301 828.51 196.64 819.712 202.452L817.939 200.387Z" fill="white"></path><path d="M843.072 247.951L842.233 247.559C840.233 244.78 824.006 222.424 827.48 220.296C837.275 214.29 847.484 208.23 857.434 202.404C859.528 201.178 864.127 196.936 866.306 197.077C867.929 198.168 869.987 202.781 871.3 204.984C872.22 206.39 875.449 211.783 875.513 213.185C876.478 213.953 878.069 216.281 878.874 217.369C903.3 250.381 945.309 262.977 984.328 252.007C987.255 251.185 998.209 246.79 999.766 246.898L999.984 246.911C999.145 247.948 995.297 248.891 993.939 249.353C992.135 249.967 990.439 250.846 988.613 251.448C981.434 253.823 973.696 255.485 966.17 256.268C956.191 257.31 941.377 256.437 931.841 253.799C928.766 252.95 919.061 248.707 916.571 249.426C914.589 250 908.481 257.954 906.936 259.846C904.259 263.128 889.168 282.357 887.122 283.56C886.965 283.654 886.814 283.762 886.66 283.865L886.334 284.077C891.352 289.006 898.381 291.589 904.854 294.222C929.234 304.137 955.391 306.28 981.301 302.587C983.012 302.342 984.79 301.632 986.507 301.245C991.655 300.078 996.86 299.214 1001.8 297.28C1003.14 296.769 1011.14 293.992 1011.99 294.034C1009.73 296.41 986.271 302.366 981.908 302.979C979.491 303.321 970.063 304.617 967.266 304.793C939.557 306.536 911.085 300.121 886.91 286.407C878.503 281.336 870.935 275.143 863.149 269.25C857.856 265.24 853.969 260.027 849.268 256.041C847.874 254.421 843.652 249.595 843.072 247.951Z" fill="#FEC700"></path><path d="M842.994 247.686C843.425 247.752 845.325 248.141 845.55 247.953C848.705 245.309 851.372 249.234 853.97 251.719C853.982 252.38 854.071 252.99 853.808 253.579L853.047 253.987C852.061 253.41 850.713 252.333 849.787 252.279C849.251 253.191 849.479 254.842 849.505 256.073C848.04 254.394 843.603 249.391 842.994 247.686Z" fill="#FEC700"></path><path d="M871.685 205.073C872.626 206.477 875.929 211.859 875.994 213.258C874.602 213.148 874.401 212.963 873.24 212.117L873.009 211.945L872.441 212.365C872.336 213.788 873.827 214.019 873.737 215.915L873.404 216.073C871.617 215.366 866.875 210.557 868.236 208.592C869.314 208.868 870.252 210.302 871.715 211.141C871.99 210.795 871.657 206.253 871.685 205.073Z" fill="#FEC700"></path><path d="M871.994 271.073C874.043 271.736 876.243 272.079 876.994 274.722C874.53 276.086 873.301 273.186 871.994 271.073Z" fill="#FEC700"></path><path d="M1079.93 78.0731C1080.82 79.3594 1083.45 83.1586 1083.99 84.5068C1082.94 84.4027 1081.89 84.2872 1080.84 84.1597C1080.67 85.0536 1080.69 85.4035 1080.12 86.0731L1079.55 85.9678C1078.34 83.9407 1079.32 83.5612 1080.43 81.9416C1079.84 80.1671 1079.78 79.924 1079.93 78.0731Z" fill="white"></path><path d="M921.994 254.103C923.519 253.856 928.027 255.195 928.994 256.14L928.988 257.021C926.184 257.289 925.347 256.492 922.755 255.427C922.1 255.156 922.188 254.786 921.994 254.103Z" fill="white"></path><path d="M1024.45 30.0731C1026.03 30.3874 1029.81 32.5431 1029.99 34.6459C1028.97 35.7379 1027.81 34.5063 1026.99 33.5211C1025.48 33.1993 1025.17 32.7506 1023.99 31.4968C1024.9 31.3119 1025.54 31.9288 1026.5 32.092C1025.73 31.1146 1025.34 30.8167 1024.45 30.0731Z" fill="white"></path><path d="M823.293 193.073L823.44 193.188L823.491 193.556C823.742 193.798 823.771 193.818 823.994 194.099C823.697 195.183 822.628 195.978 821.78 196.789L821.695 197.007L821.341 197.073C820.247 195.188 821.975 194.143 823.293 193.073Z" fill="white"></path><path d="M1069.03 245.073C1069.84 245.42 1069.52 245.15 1069.99 245.929C1069.9 246.896 1068.47 248.264 1067.75 249.073C1067.04 248.656 1067.31 248.953 1066.99 248.083C1067.26 247.097 1068.35 245.917 1069.03 245.073Z" fill="white"></path><path d="M789.775 7.48643C796.271 5.53813 804.935 6.22237 811.828 6.22962L840.768 6.24954L861.957 6.38958C863.821 6.40226 865.656 6.30537 867.518 6.16382C868.145 6.11613 868.53 6.88428 868.813 7.32586C868.425 9.93789 863.52 13.4989 861.848 15.7131C859.956 16.4658 840.804 36.708 837.966 39.5841L790.712 87.4502L758.425 119.894C751.162 127.265 743.98 134.717 736.577 141.951C735.903 142.612 735.246 143.327 734.429 143.822C732.589 147.146 720.878 156.601 720.598 158.902C722.234 162.788 739.72 178.044 739.572 179.242C741.434 180.738 741.943 181.495 743.555 183.135L768.084 207.725C768.946 208.596 779.978 219.826 779.96 219.792C781.078 220.551 786.733 226.362 787.944 227.751C789.173 229.075 790.959 230.175 791.881 231.243C795.563 235.515 799.202 239.588 803.432 243.348C805.306 244.794 807.207 247.859 808.984 249.214C813.832 252.914 817.158 257.381 821.361 261.715L848.213 289.118L860.592 301.774C862.264 303.458 868.069 309.139 868.994 310.648L868.768 311.39C866.813 312.374 850.325 311.955 846.613 311.864C833.845 311.553 819.303 313.084 806.827 310.75C796.102 308.746 784.081 300.971 775.537 294.4C771.431 291.071 765.547 284.452 761.58 280.447L739.256 258.151L676.812 193.796C674.338 191.202 671.06 188.688 668.78 186.107C657.771 173.64 646.944 160.938 635.288 149.074L577.287 91.128L556.654 70.5125C554.888 68.7351 552.701 67.4085 551.396 65.4001C550.577 64.7711 548.555 62.9469 548.007 62.0996C545.413 59.8498 540.12 54.1803 537.33 51.4173L511.114 25.2475C505.576 19.7229 499.491 14.3781 494.179 8.57573C493.824 8.18818 494.068 7.75989 494.188 7.29477C494.429 7.1345 494.472 7.08983 494.713 6.97936C497.915 5.52092 549.61 6.08353 555.223 6.85531C560.648 7.60113 565.189 9.45043 570.202 11.4781C571.473 12.6326 575.709 14.6863 577.471 15.7158C581.355 17.9883 584.569 20.4934 587.814 23.6403C605.336 40.7603 622.366 58.7819 639.873 75.8869C642.627 78.5505 645.314 81.2845 647.929 84.0858C648.971 85.188 651.824 88.3328 652.846 89.1502C652.719 89.0853 658.16 94.287 658.169 94.2978C659.215 95.5975 661.757 97.7671 663.125 99.2641C664.725 100.406 665.876 101.928 667.138 103.432C668.084 104.689 673.459 109.288 674.287 110.865C675.287 111.556 680.403 116.57 680.966 117.589C681.59 118.195 681.653 118.177 682.542 118.346C684.621 117.733 687.458 114.349 688.944 112.696C705.176 94.6211 723.114 77.7522 739.768 60.0581C744.317 55.2258 749.972 50.2148 753.943 45.4637C755.786 43.881 763.812 35.635 765.195 33.7597C765.325 33.716 787.407 9.91042 789.775 7.48643Z" fill="#FEC700"></path><path d="M753.994 46.0626C755.754 44.4412 763.417 35.9941 764.737 34.0731C764.697 35.4339 764.504 36.5046 765.154 37.6075L765.641 37.9782L766.647 37.7522C767.108 38.3328 766.978 38.0784 766.975 39.0211C765.92 41.0859 761.271 46.7969 759.123 47.9969C758.818 48.1673 758.28 48.0074 757.883 47.9468C757.457 46.3752 757.846 46.7598 756.845 46.0267C755.792 45.8749 755.047 45.9813 753.994 46.0626Z" fill="#FEC700"></path><path d="M779.911 220.073C781.042 220.835 786.768 226.674 787.994 228.069C786.917 227.993 785.85 227.779 784.925 228.228C784.59 229.155 785.255 229.357 785.749 230.902C785.453 231.858 785.685 231.607 784.965 232.073C781.777 231.223 780.048 225.817 777.781 224.439C777.525 224.283 776.943 224.092 776.253 223.625C775.936 222.717 775.93 223.074 776.128 222.184C777.83 221.497 778.34 222.714 779.816 223.236C780.222 222.417 779.981 221.062 779.911 220.073Z" fill="#FEC700"></path><path d="M666.994 103.299C665.896 103.222 665.155 103.143 664.044 103.261L663.745 103.622C665.04 105.063 666.169 106.058 665.628 108.073C661.448 108.015 659.989 102.247 655.617 99.3778L655.299 99.1729C654.966 98.2778 654.923 98.2339 655.087 97.3253L655.542 97.0731C657.982 97.6138 660.45 101.066 662.684 102.609L662.961 102.319L662.849 99.0881C664.501 100.242 665.69 101.78 666.994 103.299Z" fill="#FEC700"></path><path d="M674.431 111.073C675.414 111.764 680.441 116.779 680.994 117.798C679.57 117.712 678.389 117.299 677.587 118.603L677.85 119.728L677.634 120.053C675.431 120.325 672.734 117.762 671.994 115.782C672.092 114.769 671.938 115.096 672.474 114.301C673.306 114.219 673.294 114.226 674.064 113.905C674.656 113.104 674.463 112.148 674.431 111.073Z" fill="#FEC700"></path><path d="M637.375 79.0731C640.179 80.7993 639.623 81.7511 641.144 83.071C644.333 85.8349 648.105 89.02 650.994 92.0731L649.523 91.8865C649.529 91.8891 647.958 91.3571 648.129 91.476C645.013 89.3079 641.835 86.768 639.123 84.1342C638.369 83.4023 637.74 81.6455 637.219 80.7163C636.807 79.9499 637.022 79.9814 637.375 79.0731Z" fill="#FEC700"></path><path d="M652.865 89.0737C652.743 89.0095 657.985 94.1578 657.994 94.1686C656.932 94.2453 656.035 94.1339 654.978 94.0431C654.18 95.2739 655.242 95.1356 654.488 96.8329L653.797 97.0731C651.861 96.8043 649.963 93.998 649.995 91.9893L651.446 92.1862C652.052 92.5444 652.206 92.6806 652.912 92.8114L653.199 92.3893C652.912 90.9999 652.9 90.4963 652.865 89.0737Z" fill="#FEC700"></path><path d="M739.264 179.073C741.008 180.638 741.485 181.431 742.994 183.147L740.147 182.929C739.73 183.745 741.451 184.911 741.431 186.808C739.648 188.072 736.988 184.493 736.107 182.945C735.98 181.857 735.87 182.178 736.305 181.422C737.639 181.108 737.755 181.428 739.112 182.35L739.42 181.967C739.422 180.872 739.363 180.143 739.264 179.073Z" fill="#FEC700"></path><path d="M849.994 19.0428C852.472 18.0402 852.425 16.1602 854.177 16.0731C854.903 16.7626 854.669 16.4421 854.994 17.6577C854.155 18.706 853.225 19.9476 852.141 20.0731C850.919 18.9249 851.49 19.1895 849.994 19.0428Z" fill="#FEC700"></path><path d="M591.666 32.0731C592.764 33.2547 593.719 34.1831 594.994 35.2014C594.3 36.0074 594.638 35.8462 593.701 36.0731C592.343 35.3421 590.818 34.1605 591.011 32.5518L591.666 32.0731Z" fill="#FEC700"></path><path d="M761.26 272.073C762.84 272.89 765.181 276.789 766.546 278.288C767.181 278.982 766.985 279.227 766.886 280.073C764.271 279.739 759.869 275.379 761.26 272.073Z" fill="#FEC700"></path><path d="M704.762 216.074C704.897 216.066 705.378 216.203 705.533 216.24C706.298 216.957 708.66 219.028 708.968 220.032C709.088 220.425 708.769 220.659 708.467 221.073C706.861 220.09 704.237 218.25 703.994 216.273L704.762 216.074Z" fill="#FEC700"></path><path d="M771.994 285.115C772.239 285.096 772.515 285.086 772.763 285.073C774.323 286.158 776.075 286.96 775.991 288.932L775.501 289.073C774.561 288.395 773.593 287.698 772.681 286.985C771.884 286.369 772.058 286.084 771.994 285.115Z" fill="#FEC700"></path><path d="M725.083 147.073L725.922 147.516C726.348 149.184 724.811 150.473 723.235 151.073C722.309 150.871 722.255 150.692 721.994 149.964C722.411 149.106 724.161 147.881 725.083 147.073Z" fill="#FEC700"></path><path d="M824.495 276.073C824.742 276.245 825.022 276.444 825.138 276.771C825.744 278.452 827.95 279.321 827.994 281.214L827.118 282.073C824.719 280.736 826.605 280.092 823.994 279.095L824.035 278.6L825.013 278.219C825.065 277.01 825.007 277.31 824.495 276.073Z" fill="#FEC700"></path><path d="M1423.77 89.8943C1432.13 79.5338 1436.95 67.631 1448.95 59.7524C1458.83 53.2617 1469.14 51.1333 1480.94 52.4396C1480.1 52.3472 1488.57 54.3871 1487.81 54.138C1492.94 55.8144 1504.04 61.7219 1506.92 66.0801C1511.99 70.4756 1520.01 83.8267 1524.03 89.8149L1547.87 124.928L1617.78 227.373C1619.04 229.222 1620.59 230.944 1621.8 232.767C1633.8 250.865 1646.27 268.592 1657.98 286.876C1662.07 293.273 1667.41 299.129 1670.88 306.171C1671.72 307.889 1674.24 309.096 1673.97 311.283C1672.6 312.514 1663.31 311.9 1660.99 311.918C1651.49 312.069 1641.99 312.093 1632.48 311.99C1627.93 311.957 1623.37 311.966 1618.81 312.027C1616.44 312.051 1613.98 312.093 1611.6 312.063C1610.76 312.051 1609.85 310.748 1609.35 310.044C1605.92 305.178 1602.9 299.939 1599.63 294.968L1574.95 257.705L1510.09 162.52C1504.87 154.91 1499.67 147.265 1494.33 139.735C1493.68 138.813 1491.14 135.521 1490.84 134.686C1488.03 130.757 1482.31 122.736 1479.91 118.83C1478.23 117.019 1475.38 111 1473.28 110.516C1470.31 112.445 1453.23 136.985 1449.62 140.783C1448.91 141.523 1444.83 147.557 1444.24 148.034C1443.77 149.499 1438.87 156.289 1437.86 157.065C1436.34 159.146 1435.12 160.547 1433.49 162.843C1432.19 164.641 1430.58 166.989 1429.17 168.628C1427.95 170.613 1426.33 172.564 1424.97 174.481C1417.42 185.142 1409.58 195.613 1401.88 206.164L1388.27 225.093C1386.86 227.014 1383.37 231.972 1381.77 233.276C1377.38 233.742 1368.73 233.289 1363.81 233.339L1336.78 233.488C1333.07 233.491 1329.34 233.563 1325.63 233.554C1324.2 233.55 1323.53 233.246 1322.99 231.976C1323.02 230.533 1330.13 221.27 1331.58 219.279L1343.06 203.199C1345.83 199.361 1350.49 192.021 1353.38 188.731C1354.13 187.242 1360.81 178.316 1362.04 176.904C1362.83 176.299 1377.93 154.216 1379.47 152.042L1410.79 107.941C1414.74 102.379 1420.12 95.4514 1423.77 89.8943Z" fill="#FEC700"></path><path d="M1479.99 118.596C1481.1 118.617 1481.35 118.577 1482.31 119.119L1482.8 118.962C1482.96 118.064 1482.88 116.36 1483.24 116.073C1484.38 117.597 1484.65 119.316 1486.41 120.128C1486.12 119.636 1484.69 117.353 1484.73 117.034C1486.17 117.618 1491.06 125.741 1491.51 127.248L1491.13 127.169C1490.77 126.551 1490.21 125.344 1489.7 125.072L1489.52 125.582C1490.05 126.404 1490.37 126.853 1490.81 127.734C1491.44 129.002 1492.45 128.792 1492.99 130.379L1492.7 130.699C1491.6 130.534 1491.35 130.438 1490.31 130.011C1490.37 131.283 1490.47 132.826 1490.41 134.073C1487.73 130.238 1482.28 122.409 1479.99 118.596Z" fill="#FEC700"></path><path d="M1126.78 144.273C1136.76 144.593 1148.06 143.845 1158.16 144.146C1160.48 144.215 1169.47 143.887 1170.9 144.579C1174.42 146.283 1181.21 153.932 1184.32 156.837L1261.27 229.521C1267.2 235.018 1273.05 240.849 1278.94 246.354C1285.76 252.723 1290.59 257.48 1299.85 260.26C1307.75 262.631 1316.03 262.077 1324.2 262.074L1344.16 262.095L1460.96 262.098L1491.92 262.155C1497.97 262.158 1504.28 261.848 1510.3 262.438C1514.31 262.83 1518.46 264.083 1522.03 265.933C1525.95 267.963 1530 270.801 1533.02 274.015C1535.25 276.377 1558.54 308.761 1558.96 310.427C1559.1 311.024 1558.81 311.223 1558.5 311.677C1557.61 312.135 1556.86 311.985 1555.85 311.943C1546.48 311.693 1537.09 311.946 1527.72 311.994L1488.67 312.006L1373.76 311.982L1328.31 311.991C1320 311.988 1308.8 312.425 1300.9 311.316C1289.18 309.765 1277.98 305.535 1268.16 298.953C1260.86 294.091 1258.35 291.25 1252.14 285.568C1245.57 279.588 1239.06 273.554 1232.6 267.463C1216.68 252.669 1200.38 238.27 1184.33 223.616C1180.02 219.684 1175.89 215.566 1171.58 211.63C1168.19 208.524 1164.62 205.601 1161.17 202.553C1158.93 200.565 1156.8 198.379 1154.47 196.493C1145.31 189.088 1126.95 192.729 1124.61 190.842C1123.18 189.691 1124.66 185.931 1124.78 184.153C1125.08 179.517 1125.82 174.916 1126.12 170.282C1126.65 162.008 1126.09 153.845 1125.08 145.634C1125.58 144.674 1125.7 144.84 1126.78 144.273Z" fill="white"></path><path d="M1256.13 230.073L1257.2 230.476C1257.67 231.282 1259.23 232.853 1259.99 233.813C1259.98 234.573 1260.06 234.283 1259.43 234.968L1259.32 235.073L1258.43 234.883C1256.91 232.75 1255.55 232.61 1256.13 230.073Z" fill="white"></path><path d="M1234.43 208.073C1235.79 209.451 1237.76 211.068 1236.69 213.073C1236.28 212.955 1236.08 212.846 1235.69 212.666C1235.06 211.6 1234.12 210.017 1233.99 208.731L1234.43 208.073Z" fill="white"></path><path d="M1223.03 198.073C1224.08 198.329 1225.54 199.503 1225.97 200.782C1226.08 201.116 1225.82 201.686 1225.7 202.073C1224.23 201.441 1222.74 200.135 1223.03 198.073Z" fill="white"></path><path d="M1265.02 292.073C1267.39 292.127 1269 293.403 1268.99 295.073C1267.9 294.837 1266.34 293.842 1265.49 293.266C1264.82 292.814 1265.02 292.868 1265.02 292.073Z" fill="white"></path><path d="M1067.56 20.0731C1072.31 20.5229 1080.7 20.1117 1085.87 20.1246C1098.67 20.256 1111.48 20.3057 1124.29 20.2741L1226.19 20.2235L1261.18 20.2515C1267.3 20.2653 1274.01 20.149 1280.05 20.3666C1301.3 21.1316 1321.4 30.8846 1335.67 46.6253C1352.22 64.889 1359.89 85.9037 1358.91 110.509C1357.89 133.43 1347.9 155.03 1331.1 170.642C1318.62 182.186 1302.83 189.52 1285.97 191.608C1281.33 192.149 1275.55 192.038 1270.83 192.043C1265.53 192.048 1259.85 192.152 1254.58 191.944C1253.06 191.61 1252.63 191.129 1251.58 190.087C1248.45 186.976 1245.35 183.835 1242.23 180.715L1216.24 154.815C1214.59 153.165 1206.61 145.981 1206.03 144.496C1207.03 142.96 1219.21 143.35 1221.92 143.331L1260.89 143.31C1271.53 143.313 1279.74 144.467 1289.7 140.045C1313.15 129.639 1317.84 98.078 1300.14 80.3006C1295.25 75.2959 1288.92 71.95 1282.03 70.7328C1277.85 69.9627 1268.24 70.2185 1263.72 70.2182L1232.67 70.2179L1115.13 70.2613C1114.24 70.2607 1110.59 70.3029 1110.06 69.7045C1095.88 53.9111 1082.06 37.1361 1067.06 22.1183C1066.92 20.9553 1066.97 21.3099 1067.56 20.0731Z" fill="white"></path><path d="M1305.28 80.0731C1307.03 80.5031 1310.7 85.5383 1309.88 88.0731C1308.09 86.808 1306.71 83.0446 1305.08 81.2736C1304.84 81.0246 1305.17 80.395 1305.28 80.0731Z" fill="white"></path><path d="M1073.01 24.0819C1075.59 23.9649 1077.6 25.0145 1078.91 27.0927C1079.21 27.5592 1078.63 28.5467 1078.41 29.0731C1077.78 28.9003 1077.66 28.7478 1077.18 28.3524C1077.15 28.1907 1077.13 28.0295 1077.1 27.8687C1076.8 26.2902 1074.77 25.7314 1072.99 24.5888L1073.01 24.0819Z" fill="white"></path><path d="M1335.24 53.0731C1335.58 53.1885 1336.04 53.4223 1336.37 53.5774C1337.75 56.2764 1340.36 56.4002 1339.95 59.0731C1337.49 58.782 1334.05 55.8096 1335.24 53.0731Z" fill="white"></path><path d="M314.908 177.997C312.661 176.022 303.269 156.957 301.091 152.939L292.657 137.342C291.5 135.155 290.178 132.744 289.166 130.479C288.799 129.663 289.085 129.364 289.412 128.733C291.603 127.728 326.944 128.165 331.895 128.181L391.298 128.188L475.539 128.184C487.773 128.181 507.735 127.786 519.257 128.523C519.569 128.543 557.101 166.273 559.675 168.917C561.79 170.943 565.91 174.376 566.994 176.827L566.988 177.633C565.261 177.99 547.916 177.933 545.038 177.943L487.109 177.973L376.276 177.966L340.367 177.967C335.326 177.968 327.115 178.222 322.272 177.94C319.817 178.006 317.362 178.025 314.908 177.997Z" fill="#FEC700"></path><path d="M294.994 135.517L295.75 135.073C297.999 136.014 301.06 139.757 299.626 141.724L298.67 142.073C298.335 140.74 295.938 137.211 294.994 135.517Z" fill="#FEC700"></path><path d="M253.973 20.0731C256.518 20.5626 265.274 20.3822 268.277 20.3813L294.684 20.4138L399.935 20.4537L432.028 20.3837C462.324 20.3965 475.429 21.9115 497.902 43.634C502.478 47.9976 506.959 52.4616 511.345 57.0236C512.658 58.3923 514.294 60.0703 515.481 61.5256C517.197 63.6302 523.414 67.9609 522.972 70.5589L522.396 70.8284C504.848 70.5896 486.23 71.0116 468.538 71.0134L337.916 71.0222L300.75 71.0085C296.546 71.0085 283.027 71.355 279.687 70.443C278.112 68.315 276.853 65.5707 275.491 63.193C269.506 52.7391 263.853 42.0211 258.069 31.464C256.476 28.5549 253.892 24.9837 252.994 21.9389C253.214 20.7153 253.054 21.1741 253.973 20.0731Z" fill="white"></path><path d="M528.559 279.21L528.553 278.871C531.261 276.816 538.698 268.254 541.605 265.303L602.771 202.693C613.353 191.751 623.666 180.533 634.489 169.818C638.445 165.901 639.045 166.314 642.932 170.183C645.915 173.152 648.566 176.458 651.359 179.609C655.454 184.196 659.706 188.638 664.108 192.93C666.208 194.486 672.885 202.644 673.957 205.248C674.608 206.826 666.41 214.461 664.855 216.146C657.711 223.89 649.916 231.258 642.634 238.853L615.248 267.51C614.404 268.381 612.711 269.49 611.982 270.325C608.721 274.037 605.353 277.726 601.867 281.245L600.924 281.48C599.965 282.786 598.926 284.068 597.829 285.256C594.123 289.256 590.477 293.492 586.358 297.071C584.638 298.567 582.062 300.883 580.179 302.077C577.62 303.698 571.974 307.516 569.175 308.066C568.705 308.121 566.165 308.943 565.622 309.149C556.707 312.525 549.37 312.054 539.984 311.993L517.983 311.96C512.324 311.969 505.647 312.208 499.91 311.963C499.323 311.939 499.254 311.603 498.994 311.18C498.949 308.193 505.268 303.946 507.078 301.337C507.491 300.744 509.878 298.183 510.465 297.576C515.943 291.91 522.713 284.295 528.559 279.21Z" fill="#FEC700"></path><path d="M507.094 301.639C508.422 300.987 509.475 300.158 510.813 300.073L511.232 300.396C510.985 302.118 506.777 306.884 505.418 307.953L505.527 308.353C506.864 308.975 509.21 308.526 509.847 308.834C513.246 310.491 513.961 309.219 516.947 309.287C525.426 309.478 533.924 309.519 542.407 309.425C542.784 309.422 545.9 308.902 546.832 308.823L546.823 308.629C545.305 308.605 545.764 308.796 544.668 308.135L544.638 307.771C546.304 307.013 552.622 307.818 554.28 307.26C557.854 306.055 555.372 305.741 559.928 305.708L560.121 305.873C559.532 306.058 556.441 306.922 556.275 307.198C558.273 307.492 559.221 306.666 561.102 306.264C562.364 305.99 562.104 306.978 563.07 306.663C566.611 305.514 569.871 304.204 573.28 302.715C574.07 302.368 574.562 302.947 574.994 303.378C574.596 305.72 570.846 306.696 569.307 308.179C568.836 308.232 566.291 309.031 565.748 309.231C556.815 312.513 549.465 312.054 540.061 311.996L518.018 311.963C512.349 311.972 505.66 312.204 499.912 311.966C499.323 311.943 499.254 311.617 498.994 311.205C498.949 308.303 505.279 304.175 507.094 301.639Z" fill="#FEC700"></path><path d="M337.563 239.2L479.166 239.138C493.95 239.126 508.785 239.024 523.559 239.103C525.244 239.112 535.395 239.16 536.471 239.333C538.107 240.819 535.485 242.349 534.348 243.562C527.493 250.88 519.795 257.891 512.955 265.178C503.944 273.345 499.544 280.914 487.185 285.526C475.77 289.787 467.068 289.018 455.015 289.021L426.291 289.015L401.178 289.024C390.075 289.027 382.757 289.504 372.225 284.95C357.063 278.389 350.49 264.601 343.015 250.979C341.194 247.664 338.691 244.621 337.115 241.172C336.776 240.422 337.221 239.845 337.563 239.2Z" fill="white"></path><path d="M523.684 247.073C524.807 247.597 524.623 247.297 524.994 248.189C524.623 249.27 523.328 250.256 522.437 251.073L521.994 250.331C522.045 249.597 523.248 248.298 523.684 247.073Z" fill="white"></path></g><line x1="19" y1="413.5" x2="291" y2="413.5" stroke="#FEC700" stroke-width="5"></line><line x1="1392" y1="413.5" x2="1664" y2="413.5" stroke="#FEC700" stroke-width="5"></line><defs><clipPath id="clip0_27_100"><rect width="1674" height="312" fill="white"></rect></clipPath></defs></svg>